<?xml version="1.0" standalone="no"?>
<!DOCTYPE svg PUBLIC "-//W3C//DTD SVG 1.1//EN" "http://www.w3.org/Graphics/SVG/1.1/DTD/svg11.dtd" >
<svg xmlns="http://www.w3.org/2000/svg" xmlns:xlink="http://www.w3.org/1999/xlink" version="1.1">
<metadata></metadata>
<defs>
<font id="free_sans_boldbold" horiz-adv-x="1138" >
<font-face units-per-em="2048" ascent="1638" descent="-410" />
<missing-glyph horiz-adv-x="569" />
<glyph horiz-adv-x="0" />
<glyph unicode="&#xd;" horiz-adv-x="681" />
<glyph unicode=" "  horiz-adv-x="569" />
<glyph unicode="&#x09;" horiz-adv-x="569" />
<glyph unicode="&#xa0;" horiz-adv-x="569" />
<glyph unicode="!" horiz-adv-x="681" d="M229 0v299h308v-299h-308zM229 1057v430h308v-430l-86 -633h-138z" />
<glyph unicode="&#x22;" horiz-adv-x="970" d="M102 1227v266h283v-266l-86 -264h-115zM586 1227v266h282v-266l-86 -264h-114z" />
<glyph unicode="#" d="M6 352v203h199l61 313h-203v203h244l70 356h215l-70 -356h211l70 356h215l-70 -356h185v-203h-224l-63 -313h205v-203h-244l-82 -418h-215l82 418h-211l-82 -418h-217l82 418h-158zM420 555h211l61 313h-211z" />
<glyph unicode="$" d="M45 406v18h268q10 -217 185 -248v436q-418 96 -418 437q0 248 215 350q86 43 203 53v111h139v-111q264 -14 371 -213l28 -72q21 -67 23 -147h-262l-4 70q-27 131 -146 153q-6 2 -10 2v-411q313 -86 397 -242q45 -80 45 -193q0 -213 -139 -331q-18 -14 -37 -27 q-104 -66 -266 -84v-215h-139v215q-168 16 -277 94q-176 125 -176 355zM332 1057q0 -123 147 -176q9 -3 19 -7v371q-166 -33 -166 -188zM637 176q172 43 172 199q0 150 -172 203v-402z" />
<glyph unicode="%" horiz-adv-x="1820" d="M45 1063q0 174 137 287q105 86 240 86q182 0 295 -140q57 -72 74 -161q8 -37 8 -76q0 -168 -135 -281q-106 -88 -242 -88q-176 0 -289 135q-88 104 -88 238zM248 1063q0 -96 84 -148q41 -25 90 -24q96 0 149 84q25 39 25 86q0 100 -88 149q-39 23 -86 23q-98 0 -150 -84 q-25 -39 -24 -86zM430 -41l811 1493h156l-809 -1493h-158zM1014 348q0 174 137 287q105 86 240 86q184 0 295 -141q82 -102 81 -238q0 -168 -135 -281q-106 -88 -241 -88q-176 0 -289 136q-88 104 -88 239zM1217 346q0 -96 83 -147q41 -25 91 -25q96 0 149 84q25 39 25 86 q0 98 -84 150l-47 18q-20 6 -43 6q-98 0 -150 -84q-25 -41 -24 -88z" />
<glyph unicode="&#x26;" horiz-adv-x="1478" d="M113 395q0 182 123 295q70 63 198 131q-18 25 -24 31l-58 70q-86 102 -86 217q0 168 144 268q104 74 243 74q219 0 316 -144l28 -57q20 -53 21 -117q0 -145 -103 -250q-49 -49 -137 -110l238 -295q61 117 61 235v21h232v-23v-10q-6 -219 -109 -375q-14 -23 -31 -41 l252 -315h-329l-95 115q-178 -135 -309 -156q-41 -6 -90 -6q-266 0 -399 174q-86 111 -86 268zM385 430q0 -113 92 -190q59 -49 125 -50q98 0 246 113l-279 350l-96 -59q-88 -59 -88 -164zM537 1159q0 -47 38 -102l74 -94q123 68 123 176q-18 109 -117 118q-88 0 -112 -65 q-6 -14 -6 -33z" />
<glyph unicode="'" horiz-adv-x="487" d="M102 1227v266h283v-266l-86 -264h-115z" />
<glyph unicode="(" horiz-adv-x="681" d="M82 543q0 379 223 770q50 86 111 180h205q-221 -426 -267 -698q-20 -119 -20 -252q0 -295 119 -594q59 -150 168 -359h-205q-283 426 -326 791q-8 78 -8 162z" />
<glyph unicode=")" horiz-adv-x="681" d="M45 -410q221 426 266 699q20 119 21 252q0 295 -119 594q-59 150 -168 358h205q283 -426 325 -791q8 -78 9 -161q0 -379 -224 -770q-49 -87 -110 -181h-205z" />
<glyph unicode="*" horiz-adv-x="796" d="M47 1188l45 141l223 -74v238h148v-238l223 74l45 -143l-223 -72l137 -192l-119 -88l-137 192l-137 -192l-119 88l137 192z" />
<glyph unicode="+" horiz-adv-x="1196" d="M102 352v244h373v373h244v-373h373v-244h-373v-372h-244v372h-373z" />
<glyph unicode="," horiz-adv-x="569" d="M131 0v299h307v-281q0 -184 -69 -262q-18 -18 -41 -37q-80 -61 -197 -75v114q156 33 174 189q2 23 2 47v6h-176z" />
<glyph unicode="-" horiz-adv-x="681" d="M53 424v276h557v-276h-557z" />
<glyph unicode="." horiz-adv-x="569" d="M131 0v299h307v-299h-307z" />
<glyph unicode="/" horiz-adv-x="569" d="M4 -29l422 1491h137l-422 -1491h-137z" />
<glyph unicode="0" d="M59 717q0 416 123 579q135 187 377 187q256 0 389 -203l8 -12q102 -166 103 -559q0 -403 -123 -570q-137 -186 -377 -186q-248 0 -383 194q-8 10 -14 21q-102 168 -103 549zM346 719q0 -311 45 -408q53 -113 168 -112q125 0 176 133q37 102 37 383q0 324 -45 420 q-53 116 -168 116q-125 0 -176 -137q-37 -106 -37 -395z" />
<glyph unicode="1" d="M139 1001v191q377 0 445 260h190v-1452h-287v1001h-348z" />
<glyph unicode="2" d="M61 0q12 238 117 373q70 90 219 192q256 182 320 269q51 72 51 182q0 172 -125 219q-37 14 -80 14q-156 0 -196 -157q-10 -45 -11 -99v-47h-274q-2 23 -2 51q0 317 227 433q106 53 250 53q287 0 420 -191q78 -113 78 -270q0 -174 -103 -295q-70 -84 -223 -197 q-213 -156 -260 -217q-18 -25 -35 -57h615v-256h-988z" />
<glyph unicode="3" d="M59 426h279q12 -227 217 -227q127 0 186 104q29 51 29 115q0 135 -106 196q-25 12 -52 21q-57 14 -168 14v193h25q254 0 254 219q0 158 -131 186q-23 4 -49 4q-125 0 -172 -92q-2 -4 -4 -10q-20 -51 -23 -154h-266v25q0 195 84 299q127 164 387 164q274 0 395 -172 q66 -94 66 -224q0 -172 -148 -280l-43 -29q211 -102 234 -303q4 -27 4 -57q0 -258 -197 -383l-72 -37q-106 -45 -239 -45q-283 0 -412 194q-76 115 -78 279z" />
<glyph unicode="4" d="M49 322v241l531 889h338v-893h151v-237h-151v-322h-287v322h-582zM252 559h379v621z" />
<glyph unicode="5" d="M55 379h283q29 -170 201 -180q156 0 211 143q23 57 22 131q0 205 -139 262l-58 17q-18 2 -36 2q-137 0 -185 -111h-258l129 809h776v-256h-600l-47 -303q117 88 252 88q233 0 361 -182q92 -131 92 -320q0 -270 -189 -418q-137 -109 -335 -108q-260 0 -394 170 q-84 106 -86 256z" />
<glyph unicode="6" d="M66 690q0 346 102 535q8 16 18 32q129 213 389 226h27q229 0 352 -148l15 -18q51 -74 69 -195h-266q-45 111 -135 125q-18 4 -43 4q-147 0 -205 -147l-18 -62q-12 -61 -19 -215q111 117 248 127q18 2 41 2q221 0 338 -174q84 -123 84 -297q0 -279 -178 -426 q-127 -106 -307 -106q-227 0 -365 158q-25 27 -43 57q-104 166 -104 522zM348 461q0 -162 109 -232q51 -31 112 -30q123 0 187 118q35 66 35 150q0 176 -117 240q-46 24 -103 24q-135 0 -194 -127q-29 -61 -29 -143z" />
<glyph unicode="7" d="M59 1196v256h1022v-225q-352 -426 -460 -834q-47 -182 -60 -393h-289q49 393 164 655q12 27 27 56q72 158 235 383q51 66 84 102h-723z" />
<glyph unicode="8" d="M45 418q0 209 160 325q35 25 78 48q-166 88 -187 245q-2 25 -2 51q0 197 166 310q127 86 301 86q240 0 373 -150l41 -55q45 -76 51 -166v-22q0 -150 -94 -238q-28 -26 -94 -61q197 -104 229 -279q8 -43 8 -94q0 -236 -184 -367q-135 -98 -330 -98q-270 0 -414 174 q-102 121 -102 291zM332 434q0 -160 123 -215q47 -20 104 -20q150 0 207 118q23 51 22 113q0 172 -129 227q-45 19 -100 19q-150 0 -205 -125q-23 -51 -22 -117zM346 1063q0 -119 109 -170q49 -23 108 -23q133 0 191 97q25 43 24 94q0 119 -108 168q-46 22 -107 22 q-141 0 -196 -100q-20 -41 -21 -88z" />
<glyph unicode="9" d="M57 971q0 266 181 409q127 102 309 103q268 0 409 -238q100 -166 101 -487q0 -356 -111 -563q-4 -10 -10 -19q-131 -225 -414 -225q-223 0 -352 147q-88 103 -92 240h276q8 -100 109 -131q31 -10 67 -10q240 0 240 413q-63 -72 -90 -90q-74 -53 -188 -53q-225 0 -347 184 q-88 131 -88 320zM330 975q0 -190 123 -250q41 -20 90 -20q133 0 192 124q29 61 29 142q0 190 -125 256q-45 22 -100 22q-135 0 -187 -139l-18 -72q-4 -31 -4 -63z" />
<glyph unicode=":" horiz-adv-x="681" d="M231 0v299h308v-299h-308zM231 766v299h308v-299h-308z" />
<glyph unicode=";" horiz-adv-x="681" d="M231 0v299h308v-281q0 -184 -70 -262q-18 -18 -41 -37q-80 -61 -197 -75v114q156 33 175 189q2 23 2 47v6h-177zM231 766v299h308v-299h-308z" />
<glyph unicode="&#x3c;" horiz-adv-x="1196" d="M82 352v248l1001 371v-223l-782 -273l782 -268v-227z" />
<glyph unicode="=" horiz-adv-x="1196" d="M102 106v244h992v-244h-992zM102 598v244h992v-244h-992z" />
<glyph unicode="&#x3e;" horiz-adv-x="1196" d="M82 -20v223l782 272l-782 268v228l1001 -373v-248z" />
<glyph unicode="?" horiz-adv-x="1251" d="M131 985q2 221 86 340q4 8 10 16q133 182 402 183q266 0 409 -174l41 -64q59 -104 60 -233q0 -160 -88 -262l-60 -60q-41 -35 -98 -76q-98 -70 -119 -110q-18 -39 -18 -133h-254l4 98q16 133 137 252q27 27 62 55q115 94 135 152q10 31 10 78q0 135 -100 200 q-51 35 -115 35q-125 0 -189 -119q-37 -68 -36 -155v-19v-4h-279zM481 0v299h307v-299h-307z" />
<glyph unicode="@" horiz-adv-x="1996" d="M55 541q0 281 176 544q53 80 117 146q285 295 709 295q389 0 655 -256q227 -221 227 -543q0 -248 -167 -440q-154 -172 -345 -172q-104 0 -182 53q-51 37 -71 92q0 4 -3 8q-117 -141 -282 -153h-25q-162 0 -262 131q-74 96 -74 219q0 201 129 381q12 14 23 28 q123 154 309 183q31 4 64 4q154 0 223 -129q6 -8 10 -19l33 127h184l-160 -573q-16 -61 -16 -86q0 -84 76 -98q12 -2 24 -2q104 0 211 129q6 8 15 18q104 145 104 330q0 242 -201 422q-213 188 -509 188q-358 0 -582 -258q-188 -219 -209 -510q-2 -27 -2 -55 q0 -313 242 -502q213 -166 499 -166q238 0 424 84l58 -149q-207 -94 -486 -95q-379 0 -626 195q-242 188 -297 485q-12 72 -13 144zM727 500q0 -127 88 -189q43 -31 94 -30q90 0 172 86q4 6 9 10q100 117 124 274q4 29 5 56q0 158 -109 198l-51 10h-12q-125 0 -226 -137 q-94 -127 -94 -278z" />
<glyph unicode="A" horiz-adv-x="1478" d="M53 0l531 1493h340l516 -1493h-316l-98 301h-559l-100 -301h-314zM553 557h389l-194 584z" />
<glyph unicode="B" horiz-adv-x="1478" d="M168 0v1493h666q225 0 352 -109q123 -106 135 -260v-24q0 -147 -129 -254l-76 -53q248 -145 248 -363q0 -162 -111 -285l-36 -36q-129 -109 -377 -109h-672zM475 256h367q221 10 227 193q0 194 -225 194h-2h-367v-387zM475 899h334q207 14 217 168q0 160 -195 170h-22 h-334v-338z" />
<glyph unicode="C" horiz-adv-x="1478" d="M90 733q0 426 246 635q176 150 438 150q330 0 508 -218q8 -10 14 -18q87 -113 101 -295h-293q-25 106 -68 160q-85 108 -249 108h-3q-236 0 -333 -227q-39 -92 -50 -215q-4 -41 -4 -84q0 -350 193 -469q80 -49 184 -49q227 0 303 184q20 51 27 115h299 q-16 -303 -250 -455q-160 -102 -387 -102q-352 0 -535 262q-141 205 -141 518z" />
<glyph unicode="D" horiz-adv-x="1478" d="M158 0v1493h583q301 0 441 -139q16 -16 30 -33q182 -217 183 -573q0 -360 -183 -574q-135 -164 -424 -174h-47h-583zM465 256h276q346 0 346 489q0 492 -346 492h-276v-981z" />
<glyph unicode="E" horiz-adv-x="1366" d="M162 0v1493h1079v-256h-772v-338h715v-256h-715v-387h809v-256h-1116z" />
<glyph unicode="F" horiz-adv-x="1251" d="M152 0v1493h1048v-256h-741v-338h653v-256h-653v-643h-307z" />
<glyph unicode="G" horiz-adv-x="1593" d="M86 735q0 375 227 592q197 190 496 191q340 0 520 -207l49 -66q63 -102 78 -229h-289q-35 100 -92 149q-102 90 -264 90q-252 0 -358 -221q-59 -121 -60 -295q0 -272 162 -422q111 -102 264 -102q178 0 297 133q4 4 8 10q63 74 74 189h-340v256h598v-807h-184l-37 197 q-139 -205 -356 -234q-45 -6 -95 -6q-305 0 -501 223q-197 221 -197 559z" />
<glyph unicode="H" horiz-adv-x="1478" d="M139 0v1493h307v-559h590v559h310v-1493h-308v678h-592v-678h-307z" />
<glyph unicode="I" horiz-adv-x="569" d="M129 0v1493h307v-1493h-307z" />
<glyph unicode="J" d="M49 369v37v147h307v-143q0 -164 111 -189q25 -6 55 -6q150 0 164 143q2 14 2 31v1104h307v-1104q0 -299 -243 -395q-100 -41 -236 -41q-211 0 -342 119q-117 109 -125 297z" />
<glyph unicode="K" horiz-adv-x="1478" d="M152 0v1493h307v-655l583 655h363l-596 -643l659 -850h-366l-490 659l-153 -159v-500h-307z" />
<glyph unicode="L" horiz-adv-x="1251" d="M164 0v1493h307v-1237h715v-256h-1022z" />
<glyph unicode="M" horiz-adv-x="1705" d="M135 0v1493h459l270 -1188l262 1188h463v-1493h-307v1163l-264 -1163h-307l-269 1163v-1163h-307z" />
<glyph unicode="N" horiz-adv-x="1478" d="M139 0v1493h316l592 -1016v1016h307v-1493h-307l-601 1032v-1032h-307z" />
<glyph unicode="O" horiz-adv-x="1593" d="M82 735q0 322 180 543q14 16 29 33q191 207 508 207q319 0 512 -207q201 -215 209 -559v-27q0 -272 -146 -485q-29 -43 -63 -80q-193 -207 -510 -207t-510 207q-184 197 -207 506q-2 35 -2 69zM389 735q0 -295 168 -436q102 -84 244 -84q215 0 329 188q82 133 82 324 q0 315 -178 453q-98 75 -233 75q-221 0 -334 -192l-37 -78q-41 -111 -41 -250z" />
<glyph unicode="P" horiz-adv-x="1366" d="M156 0v1493h659q362 0 455 -276l20 -87q6 -47 6 -100q0 -287 -186 -418l-63 -39q-90 -41 -201 -41h-383v-532h-307zM463 788h287q223 0 237 193q2 14 2 31q0 205 -196 223q-20 2 -43 2h-287v-449z" />
<glyph unicode="Q" horiz-adv-x="1593" d="M88 735q0 309 170 531q18 23 39 45q193 207 510 207t510 -207q178 -193 205 -488q4 -41 4 -84q0 -268 -121 -467q-20 -32 -43 -61l164 -156l-156 -166l-176 166q-170 -102 -387 -102q-317 0 -510 207q-182 197 -207 499q-2 37 -2 76zM395 735q0 -295 168 -436 q102 -84 242 -84q106 0 180 39l-158 149l156 166l168 -159q68 135 68 323q0 303 -172 443q-99 79 -237 79h-3q-221 0 -334 -192l-37 -78q-41 -111 -41 -250z" />
<glyph unicode="R" horiz-adv-x="1478" d="M164 0v1493h801q188 0 288 -102q113 -117 113 -301q0 -270 -252 -369q117 -51 150 -94q45 -61 53 -267l4 -182q0 -82 57 -117q4 -4 8 -6v-55h-329q-43 78 -47 190v66q0 59 2 98q2 27 2 60q0 150 -125 172q-29 6 -66 6h-352v-592h-307zM471 848h371q117 0 162 39 q55 49 55 160q0 104 -55 151q-57 37 -162 39h-371v-389z" />
<glyph unicode="S" horiz-adv-x="1366" d="M66 446h299q12 -205 239 -241q45 -6 96 -6q221 0 283 123q18 35 18 77q0 119 -118 172q-59 27 -162 45l-209 41q-295 55 -377 205q-43 78 -43 197q0 293 256 403q129 55 309 56q328 0 482 -170q104 -117 104 -310h-287q-14 207 -256 232q-27 2 -57 2q-184 0 -240 -109 l-16 -45q-2 -14 -2 -31q0 -94 86 -137q61 -31 197 -57l233 -45q297 -57 369 -244q26 -69 26 -161v-7q0 -289 -252 -411q-147 -72 -360 -72q-440 0 -571 291q-41 88 -47 202z" />
<glyph unicode="T" horiz-adv-x="1251" d="M29 1237v256h1196v-256h-437v-1237h-307v1237h-452z" />
<glyph unicode="U" horiz-adv-x="1478" d="M156 481v1012h307v-1012q20 -258 285 -266q276 14 284 266v1012h307v-1012q0 -246 -145 -377q-167 -151 -442 -151h-4q-279 0 -447 151q-145 131 -145 377z" />
<glyph unicode="V" horiz-adv-x="1366" d="M49 1493h309l332 -1124l326 1124h309l-512 -1493h-260z" />
<glyph unicode="W" horiz-adv-x="1933" d="M27 1493h325l232 -1118l231 1118h303l242 -1120l223 1120h326l-414 -1493h-276l-250 1165l-244 -1165h-276z" />
<glyph unicode="X" horiz-adv-x="1366" d="M45 0l471 752l-455 741h365l262 -492l275 492h356l-461 -731l479 -762h-364l-287 518l-285 -518h-356z" />
<glyph unicode="Y" horiz-adv-x="1366" d="M55 1493h342l305 -659l285 659h344l-473 -940v-553h-307v553z" />
<glyph unicode="Z" horiz-adv-x="1251" d="M61 0v256l764 981h-764v256h1123v-256l-762 -981h762v-256h-1123z" />
<glyph unicode="[" horiz-adv-x="681" d="M135 -410v1903h496v-209h-230v-1485h230v-209h-496z" />
<glyph unicode="\" horiz-adv-x="569" d="M-25 1462h138l479 -1491h-137z" />
<glyph unicode="]" horiz-adv-x="681" d="M37 -201h229v1485h-229v209h495v-1903h-495v209z" />
<glyph unicode="^" horiz-adv-x="1196" d="M125 553l338 870h256l350 -870h-231l-248 614l-236 -614h-229z" />
<glyph unicode="_" d="M-45 -246h1229v-141h-1229v141z" />
<glyph unicode="`" horiz-adv-x="681" d="M35 1550h258l143 -307h-143z" />
<glyph unicode="a" d="M57 285q0 293 326 348l115 20q139 23 170 37q2 2 10 6q49 27 49 86q0 111 -166 111q-139 0 -178 -66l-18 -49l-7 -37h-276q27 383 473 383q453 0 453 -340v-614q0 -70 53 -123l12 -12v-35h-311q-33 49 -33 111q-152 -158 -336 -158q-158 0 -258 104q-78 84 -78 228z M344 317q0 -100 100 -127q25 -6 56 -6q178 0 217 170q10 41 10 90v78q-39 -18 -121 -35l-98 -18q-135 -29 -158 -102z" />
<glyph unicode="b" horiz-adv-x="1251" d="M121 0v1493h287v-530q101 161 303 161h2q174 0 299 -123q27 -27 47 -55q119 -172 119 -407q0 -281 -162 -453q-129 -133 -303 -133q-203 0 -305 160v-113h-287zM408 543q0 -223 122 -312q50 -38 116 -38h3q131 0 201 141q41 88 41 203q0 209 -115 303q-57 45 -127 45 q-135 0 -203 -146l-24 -71q-14 -59 -14 -125z" />
<glyph unicode="c" d="M70 530q0 383 243 527q115 67 274 67h5q283 0 407 -200q39 -68 58 -150q8 -39 12 -82h-274q-35 158 -125 189l-58 12h-22q-127 0 -178 -94q-55 -104 -56 -269q0 -250 136 -321q45 -25 98 -25q123 0 176 113q16 37 29 86h274q-27 -254 -223 -367q-113 -63 -258 -63 q-324 0 -451 254q-67 133 -67 318v5z" />
<glyph unicode="d" horiz-adv-x="1251" d="M59 537q0 281 162 452q127 135 303 135q201 0 305 -161v530h287v-1493h-287v113q-106 -160 -305 -160q-172 0 -299 121q-27 27 -47 55q-119 172 -119 408zM346 537q0 -211 117 -301q55 -43 125 -43q137 0 203 145q38 82 38 189v5q0 223 -120 314q-53 39 -121 39 q-135 0 -201 -146q-41 -86 -41 -202z" />
<glyph unicode="e" d="M45 524q0 354 213 510q123 90 299 90q256 0 399 -184q43 -55 70 -123q4 -8 6 -14q43 -125 43 -291q0 -24 -2 -49h-741q6 -139 41 -195q63 -96 188 -96q154 0 213 125q4 6 6 14h283q-59 -207 -258 -301q-115 -57 -254 -57q-291 0 -424 225q-82 141 -82 346zM336 653h440 q-8 102 -45 160q-66 92 -178 92q-188 0 -217 -252z" />
<glyph unicode="f" horiz-adv-x="681" d="M29 893v190h155v134q0 276 283 276q84 0 164 -6v-215q-37 6 -82 6q-78 0 -78 -86v-109h170v-190h-170v-893h-287v893h-155z" />
<glyph unicode="g" horiz-adv-x="1251" d="M70 526q0 289 161 463q125 135 297 135q178 0 299 -176q4 -6 9 -12v170h272v-1143q0 -266 -250 -364q-78 -31 -176 -41q-47 -4 -100 -4q-250 0 -381 106q-106 88 -109 207h297q35 -129 203 -129q152 0 215 112q29 49 29 113v150q-115 -129 -226 -152q-39 -8 -88 -8 q-236 0 -360 203q-92 152 -92 370zM356 530q0 -209 113 -297q52 -40 114 -40h3q143 0 213 143q41 82 41 194q0 201 -113 301q-61 54 -137 54q-133 0 -197 -150q-37 -88 -37 -205z" />
<glyph unicode="h" horiz-adv-x="1251" d="M137 0v1493h287v-547q119 178 324 178q147 0 247 -84q113 -94 113 -299v-741h-287v676q0 88 -33 137q-49 68 -143 68q-135 0 -194 -107q-27 -49 -27 -110v-664h-287z" />
<glyph unicode="i" horiz-adv-x="569" d="M137 0v1106h287v-1106h-287zM137 1237v256h287v-256h-287z" />
<glyph unicode="j" horiz-adv-x="569" d="M8 -207q27 -8 51 -8q74 0 82 57q2 12 2 29v1235h287v-1299q0 -195 -131 -237q-49 -16 -121 -16q-74 0 -170 10v229zM143 1237v256h287v-256h-287z" />
<glyph unicode="k" d="M121 0v1493h287v-817l362 430h326l-377 -418l403 -688h-336l-264 487l-114 -125v-362h-287z" />
<glyph unicode="l" horiz-adv-x="569" d="M137 0v1493h287v-1493h-287z" />
<glyph unicode="m" horiz-adv-x="1820" d="M123 0v1106h285v-137q111 133 237 151q31 4 66 4q197 0 286 -139q8 -12 15 -24q135 158 323 163q242 0 322 -180q31 -70 31 -162v-782h-287v737q0 109 -101 137q-25 6 -55 7q-143 0 -184 -131q-12 -39 -12 -86v-664h-287v737q0 109 -100 137q-25 6 -56 7 q-143 0 -184 -131q-12 -39 -12 -86v-664h-287z" />
<glyph unicode="n" horiz-adv-x="1251" d="M129 0v1106h287v-160q113 168 305 178h27q260 0 342 -206q28 -75 28 -170v-7v-741h-287v682q0 199 -184 199q-152 0 -209 -115q-23 -45 -22 -102v-664h-287z" />
<glyph unicode="o" horiz-adv-x="1251" d="M72 539q0 340 219 493q132 92 325 92q338 0 476 -256q73 -137 73 -333v-5q0 -324 -211 -477q-137 -100 -336 -100q-319 0 -460 235q-86 143 -86 351zM358 539q0 -217 125 -312q59 -43 135 -43q145 0 218 146q43 88 43 205q0 231 -131 319q-69 35 -130 39 q-150 0 -219 -152q-41 -86 -41 -202z" />
<glyph unicode="p" horiz-adv-x="1251" d="M119 -446v1552h287v-164q102 182 307 182q166 0 293 -114q29 -29 51 -60q115 -174 119 -413q0 -285 -162 -455q-127 -131 -301 -131q-205 0 -307 180v-577h-287zM406 537q0 -217 118 -306q55 -41 123 -41q133 0 201 142q41 86 41 200q0 223 -121 314q-53 39 -121 39 q-137 0 -203 -148q-38 -84 -38 -194v-6z" />
<glyph unicode="q" horiz-adv-x="1251" d="M57 516v21q0 287 164 456q125 131 299 131q205 0 307 -182v164h287v-1552h-287v577q-100 -180 -309 -180q-164 0 -289 112q-31 29 -53 62q-113 154 -119 391zM344 537q0 -217 119 -306q55 -41 123 -41q137 0 202 146q39 84 39 194q0 231 -125 318q-50 37 -116 37 q-137 0 -203 -148q-39 -86 -39 -200z" />
<glyph unicode="r" horiz-adv-x="796" d="M129 0v1106h287v-217q76 184 233 225q37 10 74 10q18 0 35 -2v-291q-51 8 -90 9q-252 0 -252 -252v-588h-287z" />
<glyph unicode="s" d="M59 322h281q16 -74 55 -105q59 -39 170 -39q184 0 209 86q4 10 4 23q0 53 -63 78q-14 6 -33 12l-342 106q-127 41 -174 86l-6 6q-61 68 -62 181q0 221 197 315q106 53 258 53q311 0 428 -186q51 -79 53 -188h-276q-2 149 -204 149h-3q-131 0 -160 -72l-6 -30 q0 -45 49 -68q18 -8 51 -18l363 -105q217 -63 217 -278q0 -164 -123 -269l-8 -8q-123 -98 -352 -98q-475 0 -519 321q-4 23 -4 48z" />
<glyph unicode="t" horiz-adv-x="681" d="M29 893v190h141v297h287v-297h159v-190h-159v-602q0 -94 37 -113q20 -8 57 -8q23 0 65 6v-201q-67 -22 -157 -22h-8q-281 0 -281 260v680h-141z" />
<glyph unicode="u" horiz-adv-x="1251" d="M119 336v770h287v-711q0 -198 182 -198h2q152 0 209 114q23 45 22 103v692h287v-1106h-287v131q-113 -168 -305 -178h-27q-260 0 -342 207q-28 75 -28 169v7z" />
<glyph unicode="v" d="M29 1106h303l239 -809l224 809h303l-381 -1106h-301z" />
<glyph unicode="w" horiz-adv-x="1593" d="M10 1106h297l176 -774l168 774h287l166 -774l168 774h297l-314 -1106h-297l-165 780l-177 -780h-294z" />
<glyph unicode="x" d="M33 0l368 557l-360 549h344l180 -334l178 334h344l-360 -549l369 -557h-344l-187 344l-188 -344h-344z" />
<glyph unicode="y" d="M18 1106h316l244 -805l229 805h295l-455 -1309q-51 -141 -112 -184q-20 -14 -50 -27q-84 -35 -206 -35q-45 0 -103 9v215q45 -12 76 -13q104 0 154 91q25 43 24 94v6v2z" />
<glyph unicode="z" horiz-adv-x="1024" d="M43 0v231l547 643h-510v232h860v-232l-543 -643h561v-231h-915z" />
<glyph unicode="{" horiz-adv-x="796" d="M76 457v188h8h25q123 2 131 107q2 10 2 22v432q0 170 118 248q57 39 134 39h155v-203h-76q-86 -16 -92 -116v-400q0 -139 -69 -184l-52 -23q-33 -10 -77 -16q141 -23 176 -96l16 -52q6 -33 6 -77v-400q0 -111 51 -127q16 -6 41 -6h76v-203h-155q-143 0 -213 127 q-39 70 -39 160v430q0 98 -47 129l-17 8q-29 10 -94 11z" />
<glyph unicode="|" horiz-adv-x="573" d="M205 -410v1903h164v-1903h-164z" />
<glyph unicode="}" horiz-adv-x="796" d="M147 -207h76q86 16 92 117v399q0 139 70 185q43 27 129 38q-141 23 -176 97q-23 43 -23 129v399q0 111 -51 127q-16 6 -41 6h-76v203h156q143 0 213 -127q39 -70 39 -160v-430q0 -98 47 -129l16 -8q29 -10 95 -10l8 -2v-189h-8h-25q-123 -2 -131 -106q-2 -10 -2 -23v-432 q0 -170 -119 -248q-57 -39 -133 -39h-156v203z" />
<glyph unicode="~" horiz-adv-x="1196" d="M123 346q14 297 260 297q98 0 170 -51l117 -86q70 -51 125 -51q74 0 98 55q8 23 10 80h160q-18 -299 -260 -299q-92 0 -170 53l-117 86q-66 49 -125 49q-74 0 -98 -55q-8 -23 -10 -78h-160z" />
<glyph unicode="&#xa1;" horiz-adv-x="681" d="M135 49l86 633h137l84 -633v-430h-307v430zM135 807v299h307v-299h-307z" />
<glyph unicode="&#xa2;" d="M74 530q0 426 293 551q74 31 163 41v176h91v-174q233 -4 360 -178q78 -106 88 -254h-274q-33 158 -138 191q-16 6 -36 8v-705q111 16 155 138q10 27 19 59h274q-20 -227 -197 -348q-109 -76 -251 -82v-207h-91v209q-272 18 -389 252q-68 135 -67 323zM360 532 q0 -288 170 -339v694q-170 -45 -170 -355z" />
<glyph unicode="&#xa3;" d="M63 164q170 117 207 209q18 43 19 100q0 70 -43 174h-183v113h123q-96 168 -104 239q-4 25 -4 58q0 164 125 282q12 12 26 25q131 100 336 100q303 0 426 -190l21 -35q43 -84 57 -248h-270l-2 23q-14 113 -60 157l-12 11q-61 55 -158 55q-125 0 -178 -96l-18 -49 q-4 -20 -4 -41q0 -43 39 -125l16 -33q47 -96 61 -133h285v-113h-250q31 -66 31 -121q0 -133 -135 -262q-43 -41 -103 -88q168 74 230 76q43 0 131 -23q76 -20 129 -20q96 0 215 59l84 -223q-156 -92 -297 -92q-66 0 -203 33q-131 33 -201 32q-100 0 -223 -61z" />
<glyph unicode="&#xa4;" d="M53 1098l142 139l157 -158q104 63 223 64q122 -1 220 -62l149 150l141 -141l-153 -154q55 -111 55 -211q0 -117 -59 -221l157 -156l-141 -139l-153 153q-106 -57 -181 -61h-24q-141 0 -228 64l-161 -160l-140 141l160 158q-61 113 -61 217q0 121 59 215zM352 721 q0 -119 101 -184q53 -35 118 -35q117 0 183 98q37 55 37 123q0 115 -97 182q-55 37 -121 37q-121 0 -186 -100q-35 -53 -35 -121z" />
<glyph unicode="&#xa5;" d="M10 1442h285l285 -520l274 520h276l-393 -723h281v-121h-291v-109h291v-120h-291v-369h-287v369h-297v120h297v109h-297v121h283z" />
<glyph unicode="&#xa6;" horiz-adv-x="573" d="M205 387h164v-797h-164v797zM205 696v797h164v-797h-164z" />
<glyph unicode="&#xa7;" d="M68 575q0 123 82 209q39 41 106 93q-57 57 -70 75q-55 72 -55 176q0 180 160 281q113 72 268 72q219 0 330 -123l26 -33q48 -78 54 -211h-260q-18 147 -140 158h-20q-100 0 -125 -72q-6 -14 -6 -33q0 -57 80 -112q37 -25 104 -62l260 -143q199 -111 199 -313 q0 -164 -129 -248q-27 -18 -64 -35q143 -100 144 -274q0 -211 -172 -320q-115 -72 -275 -72q-428 0 -432 412h268v-20q6 -88 39 -119q45 -45 127 -45q111 0 146 75q10 23 10 50q0 55 -37 92q-20 20 -106 67l-351 205q-162 94 -161 270zM311 649q0 -72 68 -119q18 -12 41 -24 l301 -164q94 66 94 133q0 72 -70 119l-55 33l-293 155q-84 -51 -86 -133z" />
<glyph unicode="&#xa8;" horiz-adv-x="681" d="M37 1272v250h225v-250h-225zM418 1272v250h225v-250h-225z" />
<glyph unicode="&#xa9;" horiz-adv-x="1509" d="M-29 739q0 307 211 533q209 223 508 248q33 2 66 2q307 0 532 -209q221 -207 248 -506q2 -35 2 -68q0 -317 -217 -542q-211 -221 -524 -240q-27 -2 -52 -2q-297 0 -522 209q-219 205 -248 500q-4 37 -4 75zM131 739q0 -258 180 -446q180 -186 437 -191q266 0 450 189 q180 184 180 448t-186 451q-182 184 -438 184t-441 -186l-57 -68q-125 -170 -125 -381zM334 737q0 291 186 412q98 63 232 63q209 0 317 -143q53 -71 61 -186h-184q-47 152 -190 159q-160 0 -213 -163q-14 -41 -19 -91q-2 -25 -2 -53q0 -229 144 -286q37 -16 84 -17 q172 0 194 162q2 8 2 14h189q-10 -219 -191 -305q-86 -41 -199 -41q-238 0 -346 195q-66 117 -65 280z" />
<glyph unicode="&#xaa;" horiz-adv-x="757" d="M63 991q0 178 195 211l70 12q84 14 106 27q31 14 31 49q0 63 -100 64q-96 0 -115 -60l-6 -30h-160q4 229 276 229t273 -205v-366q0 -45 41 -82v-21h-189q-18 23 -20 66q-88 -94 -201 -94q-133 0 -182 108q-18 41 -19 92zM76 537v159h581v-159h-581zM236 1010 q0 -70 75 -78q8 -2 19 -2q115 0 133 119q2 18 2 36v48q-23 -12 -72 -21l-59 -12q-88 -18 -96 -72q-2 -8 -2 -18z" />
<glyph unicode="&#xab;" d="M180 446v234l342 305v-240l-207 -182l207 -182v-234zM616 446v234l342 305v-240l-206 -182l206 -182v-234z" />
<glyph unicode="&#xac;" horiz-adv-x="1196" d="M82 610v158h1032v-592h-158v434h-874z" />
<glyph unicode="&#xad;" horiz-adv-x="681" d="M53 424v276h557v-276h-557z" />
<glyph unicode="&#xae;" horiz-adv-x="1509" d="M-29 739q0 307 211 533q209 223 508 248q33 2 66 2q307 0 532 -209q221 -207 248 -506q2 -35 2 -68q0 -317 -217 -542q-211 -221 -524 -240q-27 -2 -52 -2q-297 0 -522 209q-219 205 -248 500q-4 37 -4 75zM131 739q0 -258 180 -446q180 -186 437 -191q266 0 450 189 q180 184 180 448t-186 451q-182 184 -438 184t-441 -186l-57 -68q-125 -170 -125 -381zM393 287v907h488q182 0 231 -147l14 -66q2 -16 2 -35q0 -152 -143 -221q72 -33 90 -70l15 -49l10 -129l2 -78q0 -47 31 -65l8 -4v-43h-211q-29 70 -29 166q0 33 2 53v35q-8 98 -125 100 h-188v-354h-197zM590 807h211q104 0 123 55q8 20 8 56q0 86 -64 104q-25 6 -67 6h-211v-221z" />
<glyph unicode="&#xaf;" horiz-adv-x="681" d="M33 1311v162h612v-162h-612z" />
<glyph unicode="&#xb0;" horiz-adv-x="1241" d="M309 1096q0 152 123 245q83 64 189 64q152 0 243 -121q66 -84 66 -188q0 -156 -123 -248q-84 -63 -191 -64q-147 0 -241 121q-66 84 -66 191zM438 1094q0 -98 84 -152q45 -29 94 -29q106 0 160 91q25 41 25 92q0 98 -86 153q-43 27 -94 27q-102 0 -156 -86 q-27 -45 -27 -96z" />
<glyph unicode="&#xb1;" horiz-adv-x="1196" d="M115 -33v244h964v-244h-964zM115 641v244h360v360h244v-360h360v-244h-360v-360h-244v360h-360z" />
<glyph unicode="&#xb2;" horiz-adv-x="718" d="M33 582q6 160 88 245q43 47 125 101q178 119 211 170q20 35 20 90q0 111 -94 129q-14 2 -31 2q-104 0 -121 -113q-2 -14 -2 -32q0 -4 4 -33h-188q-2 16 -2 37q0 227 205 280q51 12 114 12q248 0 297 -184q12 -41 13 -90q0 -115 -78 -195q-43 -43 -131 -104 q-102 -72 -121 -88q-18 -12 -57 -61h383v-166h-635z" />
<glyph unicode="&#xb3;" horiz-adv-x="718" d="M31 848h188q8 -131 133 -135q88 0 119 75q8 20 8 48q0 125 -172 129h-33v127h23q154 0 154 118q0 88 -78 107q-14 4 -31 4q-78 0 -102 -57q-14 -29 -15 -95h-180q6 133 57 201q82 100 246 100q195 0 268 -124q29 -51 29 -115q0 -117 -106 -182q135 -66 135 -211 q0 -174 -152 -246q-74 -37 -174 -37q-240 0 -301 182q-16 49 -16 111z" />
<glyph unicode="&#xb4;" horiz-adv-x="681" d="M248 1243l143 307h258l-258 -307h-143z" />
<glyph unicode="&#xb5;" horiz-adv-x="1251" d="M119 -451v1557h287v-684q0 -104 36 -158q45 -68 136 -67q125 0 180 104q27 51 26 113v692h287v-799q0 -127 33 -143q10 -6 29 -6q14 0 41 8v-178q-68 -35 -144 -35q-111 0 -168 72q-12 16 -26 38q-100 -102 -209 -110h-29q-125 0 -205 78v-482h-274z" />
<glyph unicode="&#xb6;" d="M39 1014q0 178 104 317q119 162 320 162h620v-147h-88v-1737h-200v1737h-129v-1737h-201v938q-223 10 -344 186q-82 119 -82 281z" />
<glyph unicode="&#xb7;" horiz-adv-x="569" d="M131 346v252h254v-252h-254z" />
<glyph unicode="&#xb8;" horiz-adv-x="681" d="M55 -393l39 106q141 -61 215 -61q82 0 109 53q8 14 8 31q0 55 -70 67l-34 4q-49 0 -101 -24l111 217h88l-60 -129q43 14 86 14q123 0 150 -98q6 -23 6 -47q0 -156 -184 -184q-37 -6 -80 -7q-113 0 -275 56q-4 0 -8 2z" />
<glyph unicode="&#xb9;" horiz-adv-x="718" d="M82 1174v124q240 0 283 154h131v-870h-195v592h-219z" />
<glyph unicode="&#xba;" horiz-adv-x="747" d="M47 1141q0 231 164 315q72 37 164 37q229 0 301 -193q27 -72 26 -163q0 -219 -157 -306q-74 -41 -170 -40q-211 0 -291 167q-37 78 -37 183zM68 537v159h616v-159h-616zM219 1143q0 -145 90 -197q31 -16 66 -16q98 0 137 106q18 45 18 103q0 154 -94 200q-34 13 -61 15 q-98 0 -139 -107q-16 -47 -17 -104z" />
<glyph unicode="&#xbb;" d="M180 147v240l207 182l-207 183v233l342 -299v-235zM604 147v240l207 182l-207 183v233l342 -299v-235z" />
<glyph unicode="&#xbc;" horiz-adv-x="1779" d="M82 1174v124q240 0 283 154h131v-870h-195v592h-219zM348 -41l866 1505h179l-867 -1505h-178zM1085 190v152l338 528h224v-526h94v-154h-94v-190h-195v190h-367zM1235 344h217v336z" />
<glyph unicode="&#xbd;" horiz-adv-x="1779" d="M82 1174v124q240 0 283 154h131v-870h-195v592h-219zM336 -41l866 1505h178l-866 -1505h-178zM1094 0q6 160 88 246q43 47 125 100q178 119 211 170q20 35 20 90q0 111 -94 129q-14 2 -31 2q-104 0 -121 -112l-2 -33q0 -4 4 -33h-188q-2 16 -2 37q0 227 205 281 q51 12 114 12q248 0 297 -184q12 -41 13 -91q0 -115 -78 -194q-43 -43 -131 -105q-94 -66 -121 -88q-18 -12 -57 -61h383v-166h-635z" />
<glyph unicode="&#xbe;" horiz-adv-x="1779" d="M31 848h188q8 -131 133 -135q88 0 119 75q8 20 8 48q0 125 -172 129h-33v127h23q154 0 154 118q0 88 -78 107q-14 4 -31 4q-78 0 -102 -57q-14 -29 -15 -95h-180q6 133 57 201q82 100 246 100q195 0 268 -124q29 -51 29 -115q0 -117 -106 -182q135 -66 135 -211 q0 -174 -152 -246q-74 -37 -174 -37q-240 0 -301 182q-16 49 -16 111zM414 -41l866 1505h178l-866 -1505h-178zM1085 190v152l338 528h224v-526h94v-154h-94v-190h-195v190h-367zM1235 344h217v336z" />
<glyph unicode="&#xbf;" horiz-adv-x="1251" d="M104 53q0 160 91 262q51 61 157 136q98 70 119 112q18 39 18 131h254l-4 -98q-16 -133 -139 -252q-27 -27 -61 -55q-115 -94 -136 -152q-10 -31 -10 -78q0 -135 101 -200q51 -35 114 -35q127 0 193 121q35 68 35 153v19v4h278q-2 -221 -86 -340q-4 -8 -10 -17 q-133 -182 -402 -182q-268 0 -411 176q-100 123 -101 295zM457 807v299h307v-299h-307z" />
<glyph unicode="&#xc0;" horiz-adv-x="1478" d="M53 0l531 1493h340l516 -1493h-316l-98 301h-559l-100 -301h-314zM453 1917h258l143 -307h-143zM553 557h389l-194 584z" />
<glyph unicode="&#xc1;" horiz-adv-x="1478" d="M53 0l531 1493h340l516 -1493h-316l-98 301h-559l-100 -301h-314zM553 557h389l-194 584zM643 1608l143 307h258l-258 -307h-143z" />
<glyph unicode="&#xc2;" horiz-adv-x="1478" d="M53 0l531 1493h340l516 -1493h-316l-98 301h-559l-100 -301h-314zM417 1610l222 307h219l211 -307h-160l-168 205l-168 -205h-156zM553 557h389l-194 584z" />
<glyph unicode="&#xc3;" horiz-adv-x="1478" d="M53 0l531 1493h340l516 -1493h-316l-98 301h-559l-100 -301h-314zM394 1639q10 201 135 244q27 10 57 10q41 0 115 -27l145 -51q29 -12 70 -12q66 0 74 98h129q-12 -260 -195 -260q-49 0 -113 24l-145 54q-37 12 -61 12q-61 0 -78 -72l-4 -20h-129zM553 557h389l-194 584 z" />
<glyph unicode="&#xc4;" horiz-adv-x="1478" d="M53 0l531 1493h340l516 -1493h-316l-98 301h-559l-100 -301h-314zM443 1639v250h225v-250h-225zM553 557h389l-194 584zM824 1639v250h225v-250h-225z" />
<glyph unicode="&#xc5;" horiz-adv-x="1478" d="M53 0l531 1493h340l516 -1493h-316l-98 301h-559l-100 -301h-314zM553 557h389l-194 584zM559 1760q0 104 90 157q43 27 96 27q104 0 158 -90q25 -43 24 -96q0 -100 -86 -154q-45 -29 -98 -29q-104 0 -158 88q-27 45 -26 97zM657 1760q0 -57 53 -80q16 -6 35 -6 q53 0 76 51q8 16 8 35q0 57 -53 80q-15 6 -31 6q-59 0 -82 -56q-6 -14 -6 -30z" />
<glyph unicode="&#xc6;" horiz-adv-x="2048" d="M2 0l539 1493h1396v-256h-749v-338h694v-256h-694v-387h790v-256h-1097v311h-457l-109 -311h-313zM510 567h371v670h-138z" />
<glyph unicode="&#xc7;" horiz-adv-x="1478" d="M90 733q0 426 246 635q176 150 438 150q330 0 508 -218q8 -10 14 -18q86 -113 101 -295h-293q-25 106 -68 160q-86 109 -252 108q-236 0 -333 -227q-39 -92 -50 -215q-4 -41 -4 -84q0 -350 193 -469q80 -49 184 -49q227 0 303 184q20 51 27 115h299q-14 -313 -260 -461 q-152 -92 -367 -96l-39 -82q41 14 86 14q123 0 150 -98q6 -23 6 -47q0 -156 -184 -184q-37 -6 -80 -7q-113 0 -275 56q-4 0 -8 2l39 106q141 -61 215 -61q82 0 109 53q8 14 8 31q0 53 -68 67q-16 4 -37 4q-49 0 -100 -24l88 170q-205 35 -305 108q-29 20 -64 54 q-227 217 -227 618z" />
<glyph unicode="&#xc8;" horiz-adv-x="1366" d="M162 0v1493h1079v-256h-772v-338h715v-256h-715v-387h809v-256h-1116zM424 1917h258l143 -307h-143z" />
<glyph unicode="&#xc9;" horiz-adv-x="1366" d="M162 0v1493h1079v-256h-772v-338h715v-256h-715v-387h809v-256h-1116zM582 1610l143 307h258l-258 -307h-143z" />
<glyph unicode="&#xca;" horiz-adv-x="1366" d="M162 0v1493h1079v-256h-772v-338h715v-256h-715v-387h809v-256h-1116zM381 1610l222 307h219l211 -307h-160l-168 205l-168 -205h-156z" />
<glyph unicode="&#xcb;" horiz-adv-x="1366" d="M162 0v1493h1079v-256h-772v-338h715v-256h-715v-387h809v-256h-1116zM402 1639v250h225v-250h-225zM783 1639v250h225v-250h-225z" />
<glyph unicode="&#xcc;" horiz-adv-x="569" d="M-20 1917h258l143 -307h-143zM129 0v1493h307v-1493h-307z" />
<glyph unicode="&#xcd;" horiz-adv-x="569" d="M129 0v1493h307v-1493h-307zM193 1610l143 307h258l-258 -307h-143z" />
<glyph unicode="&#xce;" horiz-adv-x="569" d="M-39 1610l222 307h219l211 -307h-160l-168 205l-168 -205h-156zM129 0v1493h307v-1493h-307z" />
<glyph unicode="&#xcf;" horiz-adv-x="569" d="M-18 1639v250h225v-250h-225zM129 0v1493h307v-1493h-307zM363 1639v250h225v-250h-225z" />
<glyph unicode="&#xd0;" horiz-adv-x="1478" d="M0 694v164h158v635h583q293 0 430 -127l43 -45q158 -199 179 -504q2 -35 2 -69q0 -315 -154 -537q-12 -20 -27 -37q-123 -154 -383 -172q-43 -2 -90 -2h-583v694h-158zM465 256h276q184 0 260 104q2 2 5 7q94 133 94 378q0 248 -94 381q-88 106 -265 111h-276v-379h307 v-164h-307v-438z" />
<glyph unicode="&#xd1;" horiz-adv-x="1478" d="M139 0v1493h316l592 -1016v1016h307v-1493h-307l-601 1032v-1032h-307zM396 1639q10 201 135 244q27 10 57 10q41 0 115 -27l145 -51q29 -12 70 -12q66 0 74 98h129q-12 -260 -195 -260q-49 0 -113 24l-145 54q-37 12 -61 12q-61 0 -78 -72l-4 -20h-129z" />
<glyph unicode="&#xd2;" horiz-adv-x="1593" d="M82 735q0 322 180 543q14 16 29 33q191 207 508 207q319 0 512 -207q201 -215 209 -559v-27q0 -272 -146 -485q-29 -43 -63 -80q-193 -207 -510 -207t-510 207q-184 197 -207 506q-2 35 -2 69zM389 735q0 -295 168 -436q102 -84 244 -84q215 0 329 188q82 133 82 324 q0 315 -178 453q-98 75 -233 75q-221 0 -334 -192l-37 -78q-41 -111 -41 -250zM520 1917h258l143 -307h-143z" />
<glyph unicode="&#xd3;" horiz-adv-x="1593" d="M82 735q0 322 180 543q14 16 29 33q191 207 508 207q319 0 512 -207q201 -215 209 -559v-27q0 -272 -146 -485q-29 -43 -63 -80q-193 -207 -510 -207t-510 207q-184 197 -207 506q-2 35 -2 69zM389 735q0 -295 168 -436q102 -84 244 -84q215 0 329 188q82 133 82 324 q0 315 -178 453q-98 75 -233 75q-221 0 -334 -192l-37 -78q-41 -111 -41 -250zM684 1610l143 307h258l-258 -307h-143z" />
<glyph unicode="&#xd4;" horiz-adv-x="1593" d="M82 735q0 322 180 543q14 16 29 33q191 207 508 207q319 0 512 -207q201 -215 209 -559v-27q0 -272 -146 -485q-29 -43 -63 -80q-193 -207 -510 -207t-510 207q-184 197 -207 506q-2 35 -2 69zM389 735q0 -295 168 -436q102 -84 244 -84q215 0 329 188q82 133 82 324 q0 315 -178 453q-98 75 -233 75q-221 0 -334 -192l-37 -78q-41 -111 -41 -250zM475 1610l222 307h219l211 -307h-160l-168 205l-168 -205h-156z" />
<glyph unicode="&#xd5;" horiz-adv-x="1593" d="M82 735q0 322 180 543q14 16 29 33q191 207 508 207q319 0 512 -207q201 -215 209 -559v-27q0 -272 -146 -485q-29 -43 -63 -80q-193 -207 -510 -207t-510 207q-184 197 -207 506q-2 35 -2 69zM389 735q0 -295 168 -436q102 -84 244 -84q215 0 329 188q82 133 82 324 q0 315 -178 453q-98 75 -233 75q-221 0 -334 -192l-37 -78q-41 -111 -41 -250zM453 1639q10 201 135 244q27 10 57 10q41 0 115 -27l145 -51q29 -12 70 -12q66 0 74 98h129q-12 -260 -195 -260q-49 0 -113 24l-145 54q-37 12 -61 12q-61 0 -78 -72l-4 -20h-129z" />
<glyph unicode="&#xd6;" horiz-adv-x="1593" d="M82 735q0 322 180 543q14 16 29 33q191 207 508 207q319 0 512 -207q201 -215 209 -559v-27q0 -272 -146 -485q-29 -43 -63 -80q-193 -207 -510 -207t-510 207q-184 197 -207 506q-2 35 -2 69zM389 735q0 -295 168 -436q102 -84 244 -84q215 0 329 188q82 133 82 324 q0 315 -178 453q-98 75 -233 75q-221 0 -334 -192l-37 -78q-41 -111 -41 -250zM498 1639v250h225v-250h-225zM879 1639v250h225v-250h-225z" />
<glyph unicode="&#xd7;" horiz-adv-x="1196" d="M162 735l172 174l264 -264l264 264l172 -172l-264 -264l262 -264l-172 -172l-262 264l-262 -262l-172 172l262 262z" />
<glyph unicode="&#xd8;" horiz-adv-x="1593" d="M63 14l177 195q-168 225 -168 526q0 315 174 533q18 23 37 43q193 207 512 207q268 0 454 -156q10 -8 21 -16l170 188l106 -92l-182 -203q137 -188 149 -463q2 -23 3 -45q0 -297 -162 -512q-23 -33 -49 -59q-193 -207 -510 -207q-279 -1 -457 153l-170 -186zM379 729 q0 -170 59 -301l643 709q-113 119 -286 118q-229 0 -342 -202q-74 -133 -74 -324zM524 313q102 -98 271 -98q223 0 335 197q78 133 78 327q0 154 -47 279z" />
<glyph unicode="&#xd9;" horiz-adv-x="1478" d="M156 481v1012h307v-1012q20 -258 285 -266q276 14 284 266v1012h307v-1012q0 -246 -145 -377q-168 -152 -446 -151q-279 0 -447 151q-145 131 -145 377zM467 1917h258l143 -307h-143z" />
<glyph unicode="&#xda;" horiz-adv-x="1478" d="M156 481v1012h307v-1012q20 -258 285 -266q276 14 284 266v1012h307v-1012q0 -246 -145 -377q-168 -152 -446 -151q-279 0 -447 151q-145 131 -145 377zM631 1610l143 307h258l-258 -307h-143z" />
<glyph unicode="&#xdb;" horiz-adv-x="1478" d="M156 481v1012h307v-1012q20 -258 285 -266q276 14 284 266v1012h307v-1012q0 -246 -145 -377q-168 -152 -446 -151q-279 0 -447 151q-145 131 -145 377zM422 1610l222 307h219l211 -307h-160l-168 205l-168 -205h-156z" />
<glyph unicode="&#xdc;" horiz-adv-x="1478" d="M156 481v1012h307v-1012q20 -258 285 -266q276 14 284 266v1012h307v-1012q0 -246 -145 -377q-168 -152 -446 -151q-279 0 -447 151q-145 131 -145 377zM445 1639v250h225v-250h-225zM826 1639v250h225v-250h-225z" />
<glyph unicode="&#xdd;" horiz-adv-x="1366" d="M55 1493h342l305 -659l285 659h344l-473 -940v-553h-307v553zM580 1610l143 307h258l-258 -307h-143z" />
<glyph unicode="&#xde;" horiz-adv-x="1366" d="M156 0v1493h307v-246h352q233 0 354 -114q127 -125 127 -351q0 -293 -190 -422q-109 -74 -260 -73h-383v-287h-307zM463 543h287q223 0 237 192q2 14 2 31q0 205 -196 223q-20 2 -43 2h-287v-448z" />
<glyph unicode="&#xdf;" horiz-adv-x="1251" d="M137 0v1061q0 229 125 330q141 96 359 102q256 0 387 -150q82 -94 82 -223q0 -209 -179 -278q94 -18 162 -82q98 -96 105 -254v-23q0 -287 -177 -428q-113 -90 -270 -90q-47 0 -147 12v230q12 2 26 2l41 2q143 2 207 119q33 59 33 133q0 170 -150 229q-68 20 -131 23h-26 v194h18q145 2 189 111q12 33 12 72q0 129 -127 161q-35 8 -74 9q-147 0 -174 -119l-4 -43v-1100h-287z" />
<glyph unicode="&#xe0;" d="M57 285q0 293 326 348l115 20q139 23 170 37q2 2 10 6q49 27 49 86q0 111 -166 111q-139 0 -178 -66l-18 -49l-7 -37h-276q27 383 473 383q453 0 453 -340v-614q0 -70 53 -123l12 -12v-35h-311q-33 49 -33 111q-152 -158 -336 -158q-158 0 -258 104q-78 84 -78 228z M271 1550h258l143 -307h-143zM344 317q0 -100 100 -127q25 -6 56 -6q178 0 217 170q10 41 10 90v78q-39 -18 -121 -35l-98 -18q-135 -29 -158 -102z" />
<glyph unicode="&#xe1;" d="M57 285q0 293 326 348l115 20q139 23 170 37q2 2 10 6q49 27 49 86q0 111 -166 111q-139 0 -178 -66l-18 -49l-7 -37h-276q27 383 473 383q453 0 453 -340v-614q0 -70 53 -123l12 -12v-35h-311q-33 49 -33 111q-152 -158 -336 -158q-158 0 -258 104q-78 84 -78 228z M344 317q0 -100 100 -127q25 -6 56 -6q178 0 217 170q10 41 10 90v78q-39 -18 -121 -35l-98 -18q-135 -29 -158 -102zM441 1243l143 307h258l-258 -307h-143z" />
<glyph unicode="&#xe2;" d="M57 285q0 293 326 348l115 20q139 23 170 37q2 2 10 6q49 27 49 86q0 111 -166 111q-139 0 -178 -66l-18 -49l-7 -37h-276q27 383 473 383q453 0 453 -340v-614q0 -70 53 -123l12 -12v-35h-311q-33 49 -33 111q-152 -158 -336 -158q-158 0 -258 104q-78 84 -78 228z M231 1243l222 307h219l211 -307h-160l-168 205l-168 -205h-156zM344 317q0 -100 100 -127q25 -6 56 -6q178 0 217 170q10 41 10 90v78q-39 -18 -121 -35l-98 -18q-135 -29 -158 -102z" />
<glyph unicode="&#xe3;" d="M57 285q0 293 326 348l115 20q139 23 170 37q2 2 10 6q49 27 49 86q0 111 -166 111q-139 0 -178 -66l-18 -49l-7 -37h-276q27 383 473 383q453 0 453 -340v-614q0 -70 53 -123l12 -12v-35h-311q-33 49 -33 111q-152 -158 -336 -158q-158 0 -258 104q-78 84 -78 228z M195 1272q10 201 135 244q27 10 57 10q41 0 115 -27l145 -51q29 -12 70 -12q66 0 74 98h129q-12 -260 -195 -260q-49 0 -113 24l-145 54q-37 12 -61 12q-61 0 -78 -72l-4 -20h-129zM344 317q0 -100 100 -127q25 -6 56 -6q178 0 217 170q10 41 10 90v78q-39 -18 -121 -35 l-98 -18q-135 -29 -158 -102z" />
<glyph unicode="&#xe4;" d="M57 285q0 293 326 348l115 20q139 23 170 37q2 2 10 6q49 27 49 86q0 111 -166 111q-139 0 -178 -66l-18 -49l-7 -37h-276q27 383 473 383q453 0 453 -340v-614q0 -70 53 -123l12 -12v-35h-311q-33 49 -33 111q-152 -158 -336 -158q-158 0 -258 104q-78 84 -78 228z M254 1272v250h225v-250h-225zM344 317q0 -100 100 -127q25 -6 56 -6q178 0 217 170q10 41 10 90v78q-39 -18 -121 -35l-98 -18q-135 -29 -158 -102zM635 1272v250h225v-250h-225z" />
<glyph unicode="&#xe5;" d="M57 285q0 293 326 348l115 20q139 23 170 37q2 2 10 6q49 27 49 86q0 111 -166 111q-139 0 -178 -66l-18 -49l-7 -37h-276q27 383 473 383q453 0 453 -340v-614q0 -70 53 -123l12 -12v-35h-311q-33 49 -33 111q-152 -158 -336 -158q-158 0 -258 104q-78 84 -78 228z M344 317q0 -100 100 -127q25 -6 56 -6q178 0 217 170q10 41 10 90v78q-39 -18 -121 -35l-98 -18q-135 -29 -158 -102zM373 1393q0 104 90 157q43 27 96 27q104 0 158 -90q25 -43 24 -96q0 -100 -86 -154q-45 -29 -98 -29q-104 0 -158 88q-27 45 -26 97zM471 1393 q0 -57 53 -80q16 -6 35 -6q53 0 76 51q8 16 8 35q0 57 -53 80q-15 6 -31 6q-59 0 -82 -56q-6 -14 -6 -30z" />
<glyph unicode="&#xe6;" horiz-adv-x="1820" d="M55 289q0 279 289 342q18 4 37 8l115 20q139 23 170 37q2 2 10 6q49 27 49 82q0 109 -174 109q-139 0 -176 -80q-12 -29 -19 -72h-268q6 383 467 383q240 0 358 -102q127 102 318 102q274 0 418 -202l43 -72q10 -23 20 -47q43 -123 43 -291q0 -25 -2 -49h-741 q0 -127 41 -191q66 -100 192 -100q117 0 182 84q23 26 31 55h283q-61 -211 -264 -305q-113 -53 -248 -53q-279 0 -410 213q-170 -199 -379 -213q-20 -2 -41 -2q-215 0 -301 158q-43 78 -43 180zM342 317q0 -104 102 -129q25 -6 54 -6q195 0 223 197q4 30 4 63v78 q-45 -27 -121 -39l-98 -14q-164 -23 -164 -150zM1014 653h442q-23 252 -223 252q-201 0 -219 -252z" />
<glyph unicode="&#xe7;" d="M70 530q0 383 243 527q117 68 279 67q283 0 407 -200q39 -68 58 -150q8 -39 12 -82h-274q-35 158 -125 189l-58 12h-22q-127 0 -178 -94q-55 -104 -56 -267q0 -186 78 -280q53 -66 158 -68q129 0 180 129q12 31 23 70h274q-20 -229 -197 -348q-118 -82 -276 -82l-35 -82 q37 14 84 14q125 0 152 -100q6 -20 6 -45q0 -156 -185 -184q-37 -6 -79 -7q-119 0 -283 58l39 106q137 -61 213 -61q82 0 110 53q8 14 9 31q0 53 -68 67q-16 4 -37 4q-51 0 -102 -24l88 174q-319 41 -408 342q-31 102 -30 231z" />
<glyph unicode="&#xe8;" d="M45 524q0 354 213 510q123 90 299 90q256 0 399 -184q43 -55 70 -123q4 -8 6 -14q43 -125 43 -291q0 -24 -2 -49h-741q6 -139 41 -195q63 -96 188 -96q154 0 213 125q4 6 6 14h283q-59 -207 -258 -301q-115 -57 -254 -57q-291 0 -424 225q-82 141 -82 346zM271 1550h258 l143 -307h-143zM336 653h440q-8 102 -45 160q-66 92 -178 92q-188 0 -217 -252z" />
<glyph unicode="&#xe9;" d="M45 524q0 354 213 510q123 90 299 90q256 0 399 -184q43 -55 70 -123q4 -8 6 -14q43 -125 43 -291q0 -24 -2 -49h-741q6 -139 41 -195q63 -96 188 -96q154 0 213 125q4 6 6 14h283q-59 -207 -258 -301q-115 -57 -254 -57q-291 0 -424 225q-82 141 -82 346zM336 653h440 q-8 102 -45 160q-66 92 -178 92q-188 0 -217 -252zM457 1243l143 307h258l-258 -307h-143z" />
<glyph unicode="&#xea;" d="M45 524q0 354 213 510q123 90 299 90q256 0 399 -184q43 -55 70 -123q4 -8 6 -14q43 -125 43 -291q0 -24 -2 -49h-741q6 -139 41 -195q63 -96 188 -96q154 0 213 125q4 6 6 14h283q-59 -207 -258 -301q-115 -57 -254 -57q-291 0 -424 225q-82 141 -82 346zM247 1243 l222 307h219l211 -307h-160l-168 205l-168 -205h-156zM336 653h440q-8 102 -45 160q-66 92 -178 92q-188 0 -217 -252z" />
<glyph unicode="&#xeb;" d="M45 524q0 354 213 510q123 90 299 90q256 0 399 -184q43 -55 70 -123q4 -8 6 -14q43 -125 43 -291q0 -24 -2 -49h-741q6 -139 41 -195q63 -96 188 -96q154 0 213 125q4 6 6 14h283q-59 -207 -258 -301q-115 -57 -254 -57q-291 0 -424 225q-82 141 -82 346zM270 1272v250 h225v-250h-225zM336 653h440q-8 102 -45 160q-66 92 -178 92q-188 0 -217 -252zM651 1272v250h225v-250h-225z" />
<glyph unicode="&#xec;" horiz-adv-x="569" d="M-20 1550h258l143 -307h-143zM137 0v1106h287v-1106h-287z" />
<glyph unicode="&#xed;" horiz-adv-x="569" d="M137 0v1106h287v-1106h-287zM193 1243l143 307h258l-258 -307h-143z" />
<glyph unicode="&#xee;" horiz-adv-x="569" d="M-39 1243l222 307h219l211 -307h-160l-168 205l-168 -205h-156zM137 0v1106h287v-1106h-287z" />
<glyph unicode="&#xef;" horiz-adv-x="569" d="M-18 1272v250h225v-250h-225zM137 0v1106h287v-1106h-287zM363 1272v250h225v-250h-225z" />
<glyph unicode="&#xf0;" horiz-adv-x="1251" d="M72 543q0 338 231 475q123 76 258 76q74 0 174 -39q-82 131 -194 196l-158 -94l-86 76l143 90q-78 47 -184 98l137 97q72 -27 178 -86q4 -4 31 -15l178 107l105 -70l-172 -102q385 -260 442 -645q10 -74 10 -156q0 -371 -239 -520q-127 -78 -308 -78q-324 0 -464 242 q-82 141 -82 348zM360 532q0 -223 129 -309q57 -39 129 -39q152 0 222 152q37 82 37 190q0 233 -134 318q-55 35 -125 35q-154 0 -221 -154q-37 -82 -37 -193z" />
<glyph unicode="&#xf1;" horiz-adv-x="1251" d="M129 0v1106h287v-160q113 168 305 178h27q260 0 342 -206q29 -78 28 -177v-741h-287v682q0 199 -184 199q-152 0 -209 -115q-23 -45 -22 -102v-664h-287zM254 1272q10 201 135 244q27 10 57 10q41 0 115 -27l145 -51q29 -12 70 -12q66 0 74 98h129q-12 -260 -195 -260 q-49 0 -113 24l-145 54q-37 12 -61 12q-61 0 -78 -72l-4 -20h-129z" />
<glyph unicode="&#xf2;" horiz-adv-x="1251" d="M72 539q0 340 219 493q132 92 325 92q338 0 476 -256q74 -139 73 -338q0 -324 -211 -477q-137 -100 -336 -100q-319 0 -460 235q-86 143 -86 351zM338 1550h258l143 -307h-143zM358 539q0 -217 125 -312q59 -43 135 -43q145 0 218 146q43 88 43 205q0 231 -131 319 q-69 35 -130 39q-150 0 -219 -152q-41 -86 -41 -202z" />
<glyph unicode="&#xf3;" horiz-adv-x="1251" d="M72 539q0 340 219 493q132 92 325 92q338 0 476 -256q74 -139 73 -338q0 -324 -211 -477q-137 -100 -336 -100q-319 0 -460 235q-86 143 -86 351zM358 539q0 -217 125 -312q59 -43 135 -43q145 0 218 146q43 88 43 205q0 231 -131 319q-69 35 -130 39q-150 0 -219 -152 q-41 -86 -41 -202zM502 1243l143 307h258l-258 -307h-143z" />
<glyph unicode="&#xf4;" horiz-adv-x="1251" d="M72 539q0 340 219 493q132 92 325 92q338 0 476 -256q74 -139 73 -338q0 -324 -211 -477q-137 -100 -336 -100q-319 0 -460 235q-86 143 -86 351zM292 1243l222 307h219l211 -307h-160l-168 205l-168 -205h-156zM358 539q0 -217 125 -312q59 -43 135 -43q145 0 218 146 q43 88 43 205q0 231 -131 319q-69 35 -130 39q-150 0 -219 -152q-41 -86 -41 -202z" />
<glyph unicode="&#xf5;" horiz-adv-x="1251" d="M72 539q0 340 219 493q132 92 325 92q338 0 476 -256q74 -139 73 -338q0 -324 -211 -477q-137 -100 -336 -100q-319 0 -460 235q-86 143 -86 351zM263 1272q10 201 135 244q27 10 57 10q41 0 115 -27l145 -51q29 -12 70 -12q66 0 74 98h129q-12 -260 -195 -260 q-49 0 -113 24l-145 54q-37 12 -61 12q-61 0 -78 -72l-4 -20h-129zM358 539q0 -217 125 -312q59 -43 135 -43q145 0 218 146q43 88 43 205q0 231 -131 319q-69 35 -130 39q-150 0 -219 -152q-41 -86 -41 -202z" />
<glyph unicode="&#xf6;" horiz-adv-x="1251" d="M72 539q0 340 219 493q132 92 325 92q338 0 476 -256q74 -139 73 -338q0 -324 -211 -477q-137 -100 -336 -100q-319 0 -460 235q-86 143 -86 351zM316 1272v250h225v-250h-225zM358 539q0 -217 125 -312q59 -43 135 -43q145 0 218 146q43 88 43 205q0 231 -131 319 q-69 35 -130 39q-150 0 -219 -152q-41 -86 -41 -202zM697 1272v250h225v-250h-225z" />
<glyph unicode="&#xf7;" horiz-adv-x="1196" d="M102 352v244h992v-244h-992zM471 -23v252h254v-252h-254zM471 719v252h254v-252h-254z" />
<glyph unicode="&#xf8;" horiz-adv-x="1251" d="M23 4l153 158q-102 147 -102 377q0 346 227 497q133 88 324 88q219 0 372 -127l140 144l88 -84l-148 -150q96 -150 97 -368q0 -340 -222 -494q-133 -92 -325 -92q-215 0 -351 102q-10 9 -18 17l-147 -150zM360 545q0 -94 29 -168l414 422q-80 96 -182 96 q-143 0 -215 -145q-45 -88 -46 -205zM451 270q74 -86 176 -86q139 0 213 142q47 88 47 206q0 82 -25 156z" />
<glyph unicode="&#xf9;" horiz-adv-x="1251" d="M119 336v770h287v-711q0 -199 184 -198q152 0 209 114q23 45 22 103v692h287v-1106h-287v131q-113 -168 -305 -178h-27q-260 0 -342 207q-29 78 -28 176zM334 1550h258l143 -307h-143z" />
<glyph unicode="&#xfa;" horiz-adv-x="1251" d="M119 336v770h287v-711q0 -199 184 -198q152 0 209 114q23 45 22 103v692h287v-1106h-287v131q-113 -168 -305 -178h-27q-260 0 -342 207q-29 78 -28 176zM496 1243l143 307h258l-258 -307h-143z" />
<glyph unicode="&#xfb;" horiz-adv-x="1251" d="M119 336v770h287v-711q0 -199 184 -198q152 0 209 114q23 45 22 103v692h287v-1106h-287v131q-113 -168 -305 -178h-27q-260 0 -342 207q-29 78 -28 176zM286 1243l222 307h219l211 -307h-160l-168 205l-168 -205h-156z" />
<glyph unicode="&#xfc;" horiz-adv-x="1251" d="M119 336v770h287v-711q0 -199 184 -198q152 0 209 114q23 45 22 103v692h287v-1106h-287v131q-113 -168 -305 -178h-27q-260 0 -342 207q-29 78 -28 176zM307 1272v250h225v-250h-225zM688 1272v250h225v-250h-225z" />
<glyph unicode="&#xfd;" d="M18 1106h316l244 -805l229 805h295l-455 -1309q-51 -141 -112 -184q-20 -14 -50 -27q-84 -35 -206 -35q-45 0 -103 9v215q45 -12 76 -13q104 0 154 91q25 43 24 94v6v2zM441 1243l143 307h258l-258 -307h-143z" />
<glyph unicode="&#xfe;" horiz-adv-x="1251" d="M119 -446v1939h287v-551q102 182 307 182q213 0 348 -188q115 -164 115 -399q0 -285 -164 -453q-125 -131 -299 -131q-205 0 -307 178v-577h-287zM406 537q0 -213 118 -304q55 -41 123 -40q133 0 201 139q41 86 41 200q0 223 -121 314q-53 39 -121 39q-137 0 -203 -148 q-39 -86 -38 -200z" />
<glyph unicode="&#xff;" d="M18 1106h316l244 -805l229 805h295l-455 -1309q-51 -141 -112 -184q-20 -14 -50 -27q-84 -35 -206 -35q-45 0 -103 9v215q45 -12 76 -13q104 0 154 91q25 43 24 94v6v2zM256 1272v250h225v-250h-225zM637 1272v250h225v-250h-225z" />
<glyph unicode="&#x152;" horiz-adv-x="2048" d="M57 735q0 381 203 602q168 180 414 181q154 0 262 -88q23 -18 47 -44v107h965v-256h-670v-338h612v-256h-612v-387h709v-256h-1004v121q-104 -131 -213 -158q-45 -10 -104 -10q-270 0 -443 227q-166 219 -166 555zM365 735q0 -299 155 -440q88 -80 207 -80q154 0 238 139 q4 5 6 11v741q-80 141 -219 149h-23q-195 0 -295 -192l-35 -84q-35 -109 -34 -244z" />
<glyph unicode="&#x153;" horiz-adv-x="1933" d="M47 539q0 346 225 497q131 88 322 88q250 0 399 -155q133 156 369 155q262 0 405 -188q47 -59 74 -133q43 -125 43 -291q0 -25 -2 -49h-741q2 -127 43 -193q57 -96 190 -98q123 0 189 90q18 22 26 49h283q-63 -211 -264 -305q-96 -45 -211 -51q-18 -2 -37 -2 q-231 0 -367 153q-158 -154 -399 -153q-319 0 -461 235q-86 143 -86 351zM334 539q0 -217 125 -312q59 -43 135 -43q145 0 217 146q43 88 43 205q0 231 -131 319q-68 35 -129 39q-150 0 -219 -152q-41 -86 -41 -202zM1145 653h440q-10 106 -47 160q-72 86 -174 92 q-113 0 -172 -90l-12 -20q-27 -54 -35 -142z" />
<glyph unicode="&#x178;" horiz-adv-x="1366" d="M55 1493h342l305 -659l285 659h344l-473 -940v-553h-307v553zM397 1639v250h225v-250h-225zM778 1639v250h225v-250h-225z" />
<glyph unicode="&#x2c6;" horiz-adv-x="681" d="M16 1243l222 307h219l211 -307h-160l-168 205l-168 -205h-156z" />
<glyph unicode="&#x2dc;" horiz-adv-x="681" d="M-18 1272q10 201 135 244q27 10 57 10q41 0 115 -27l145 -51q29 -12 70 -12q66 0 74 98h129q-12 -260 -195 -260q-49 0 -113 24l-145 54q-37 12 -61 12q-61 0 -78 -72l-4 -20h-129z" />
<glyph unicode="&#x2000;" horiz-adv-x="972" />
<glyph unicode="&#x2001;" horiz-adv-x="1944" />
<glyph unicode="&#x2002;" horiz-adv-x="972" />
<glyph unicode="&#x2003;" horiz-adv-x="1944" />
<glyph unicode="&#x2004;" horiz-adv-x="648" />
<glyph unicode="&#x2005;" horiz-adv-x="486" />
<glyph unicode="&#x2006;" horiz-adv-x="324" />
<glyph unicode="&#x2007;" horiz-adv-x="324" />
<glyph unicode="&#x2008;" horiz-adv-x="243" />
<glyph unicode="&#x2009;" horiz-adv-x="388" />
<glyph unicode="&#x200a;" horiz-adv-x="108" />
<glyph unicode="&#x2010;" horiz-adv-x="681" d="M53 424v276h557v-276h-557z" />
<glyph unicode="&#x2011;" horiz-adv-x="681" d="M53 424v276h557v-276h-557z" />
<glyph unicode="&#x2012;" horiz-adv-x="681" d="M53 424v276h557v-276h-557z" />
<glyph unicode="&#x2013;" d="M-18 424v213h1159v-213h-1159z" />
<glyph unicode="&#x2014;" horiz-adv-x="2048" d="M-14 424v213h2068v-213h-2068z" />
<glyph unicode="&#x2018;" horiz-adv-x="569" d="M137 961v223q0 158 86 233q2 4 6 6q76 63 185 70v-94q-162 -29 -164 -168v-14h164v-256h-277z" />
<glyph unicode="&#x2019;" horiz-adv-x="569" d="M135 961v94q162 29 164 168v14h-164v256h277v-223q0 -158 -86 -234q-2 -4 -7 -6q-76 -63 -184 -69z" />
<glyph unicode="&#x201a;" horiz-adv-x="569" d="M135 0v256h277v-223q0 -158 -86 -234q-2 -4 -7 -6q-76 -63 -184 -69v94q162 29 164 168v14h-164z" />
<glyph unicode="&#x201c;" horiz-adv-x="1024" d="M145 961v223q0 158 86 233q2 4 7 6q76 63 184 70v-94q-162 -29 -164 -168v-14h164v-256h-277zM610 961v223q0 158 86 233q2 4 6 6q76 63 185 70v-94q-162 -29 -164 -168v-14h164v-256h-277z" />
<glyph unicode="&#x201d;" horiz-adv-x="1024" d="M150 961v94q162 29 163 168v14h-163v256h276v-223q0 -158 -86 -234q-2 -4 -6 -6q-76 -63 -184 -69zM625 961v94q162 29 163 168v14h-163v256h276v-223q0 -158 -86 -234q-2 -4 -6 -6q-76 -63 -184 -69z" />
<glyph unicode="&#x201e;" horiz-adv-x="1024" d="M147 0v256h277v-223q0 -158 -86 -234q-2 -4 -6 -6q-76 -63 -185 -69v94q162 29 164 168v14h-164zM608 0v256h277v-223q0 -158 -86 -234q-2 -4 -6 -6q-76 -63 -185 -69v94q162 29 164 168v14h-164z" />
<glyph unicode="&#x2022;" horiz-adv-x="716" d="M102 614q0 135 111 211q65 45 149 45q129 0 205 -108q47 -68 47 -148q0 -131 -106 -208q-68 -47 -150 -48q-131 0 -208 107q-47 68 -48 149z" />
<glyph unicode="&#x2026;" horiz-adv-x="2048" d="M188 0v299h308v-299h-308zM870 0v299h308v-299h-308zM1552 0v299h308v-299h-308z" />
<glyph unicode="&#x202f;" horiz-adv-x="388" />
<glyph unicode="&#x2039;" horiz-adv-x="681" d="M170 446v234l342 305v-240l-207 -182l207 -182v-234z" />
<glyph unicode="&#x203a;" horiz-adv-x="681" d="M164 147v240l207 182l-207 183v233l342 -299v-235z" />
<glyph unicode="&#x205f;" horiz-adv-x="486" />
<glyph unicode="&#x20ac;" d="M12 512l49 139h82q-4 29 -4 72t2 68h-129l49 139h99q80 367 336 495q113 57 249 58q152 0 273 -72q43 -25 100 -68l-92 -264q-160 127 -270 135q-14 2 -29 3q-193 0 -268 -287h514l-49 -139h-492q-6 -49 -6 -84t4 -56h444l-51 -139h-370q72 -250 229 -287q23 -4 45 -4 q90 0 219 66q35 16 80 41v-305q-211 -70 -311 -70q-190 0 -342 133q-47 43 -82 94q-92 135 -131 332h-148z" />
<glyph unicode="&#x2122;" horiz-adv-x="2048" d="M145 1333v160h748v-160h-272v-774h-195v774h-281zM993 559v934h281l176 -717l172 717h281v-934h-187v715l-170 -715h-192l-174 715v-715h-187z" />
<glyph unicode="&#x25fc;" horiz-adv-x="1105" d="M0 0v1106h1106v-1106h-1106z" />
<glyph unicode="&#xfb01;" horiz-adv-x="1251" d="M18 893v190h156v134q0 276 283 276q84 0 164 -6v-215q-37 6 -82 6q-78 0 -78 -86v-109h170v-190h-170v-893h-287v893h-156zM836 0v1106h286v-1106h-286zM836 1237v256h286v-256h-286z" />
<glyph unicode="&#xfb02;" horiz-adv-x="1251" d="M25 893v190h155v134q0 276 283 276q84 0 164 -6v-215q-37 6 -82 6q-78 0 -78 -86v-109h170v-190h-170v-893h-287v893h-155zM831 0v1493h287v-1493h-287z" />
</font>
</defs>
</svg>
